<svg xmlns="http://www.w3.org/2000/svg" width="65" height="71" viewBox="0 0 65 71" fill="none">
  <g clip-path="url(#clip0_711_4)">
    <path d="M13.9294 35.5002V22.1623C13.9657 19.5406 14.4752 16.9524 15.4288 14.5461C16.3823 12.1398 17.7612 9.96265 19.4864 8.13944C21.2116 6.31624 23.2492 4.88279 25.4825 3.92123C27.7157 2.95968 30.1007 2.48891 32.5008 2.53592C34.9009 2.48891 37.2859 2.95968 39.5192 3.92123C41.7524 4.88279 43.79 6.31624 45.5152 8.13944C47.2404 9.96265 48.6193 12.1398 49.5729 14.5461C50.5265 16.9524 51.036 19.5406 51.0723 22.1623V35.5002M41.7866 62.1252C44.2493 62.1252 46.6111 61.0566 48.3525 59.1544C50.0939 57.2523 51.0723 54.6724 51.0723 51.9823V40.5716M41.7866 62.1252C41.7866 63.8065 41.1751 65.4189 40.0867 66.6078C38.9983 67.7966 37.5222 68.4645 35.983 68.4645H29.0187C27.4795 68.4645 26.0033 67.7966 24.9149 66.6078C23.8266 65.4189 23.2151 63.8065 23.2151 62.1252C23.2151 60.4439 23.8266 58.8315 24.9149 57.6426C26.0033 56.4538 27.4795 55.7859 29.0187 55.7859H35.983C37.5222 55.7859 38.9983 56.4538 40.0867 57.6426C41.1751 58.8315 41.7866 60.4439 41.7866 62.1252ZM6.96512 27.8931H11.608C12.2237 27.8931 12.8141 28.1602 13.2495 28.6358C13.6848 29.1113 13.9294 29.7563 13.9294 30.4288V45.6431C13.9294 46.3156 13.6848 46.9605 13.2495 47.4361C12.8141 47.9116 12.2237 48.1788 11.608 48.1788H6.96512C5.73376 48.1788 4.55283 47.6445 3.68213 46.6934C2.81142 45.7423 2.32227 44.4524 2.32227 43.1073V32.9645C2.32227 31.6195 2.81142 30.3295 3.68213 29.3784C4.55283 28.4274 5.73376 27.8931 6.96512 27.8931ZM58.0366 48.1788H53.3937C52.778 48.1788 52.1875 47.9116 51.7522 47.4361C51.3168 46.9605 51.0723 46.3156 51.0723 45.6431V30.4288C51.0723 29.7563 51.3168 29.1113 51.7522 28.6358C52.1875 28.1602 52.778 27.8931 53.3937 27.8931H58.0366C59.2679 27.8931 60.4488 28.4274 61.3195 29.3784C62.1902 30.3295 62.6794 31.6195 62.6794 32.9645V43.1073C62.6794 44.4524 62.1902 45.7423 61.3195 46.6934C60.4488 47.6445 59.2679 48.1788 58.0366 48.1788Z" stroke="#43D9B8" stroke-width="6" stroke-linecap="round" stroke-linejoin="round"/>
  </g>
  <defs>
    <clipPath id="clip0_711_4">
      <rect width="65" height="71" fill="white"/>
    </clipPath>
  </defs>
</svg>